<?xml version="1.0" standalone="no"?>
<!DOCTYPE svg PUBLIC "-//W3C//DTD SVG 20010904//EN"
 "http://www.w3.org/TR/2001/REC-SVG-20010904/DTD/svg10.dtd">
<svg version="1.0" xmlns="http://www.w3.org/2000/svg"
 width="16.000000pt" height="16.000000pt" viewBox="0 0 16.000000 16.000000"
 preserveAspectRatio="xMidYMid meet">
<metadata>
Created by potrace 1.11, written by Peter Selinger 2001-2013
</metadata>
<g transform="translate(0.000000,16.000000) scale(0.000800,-0.000800)"
fill="#000000" stroke="none">
<path d="M0 10000 l0 -10000 10000 0 10000 0 0 10000 0 10000 -10000 0 -10000
0 0 -10000z m12250 4415 l2225 2225 1107 -1107 1108 -1108 -2225 -2225 -2225
-2225 2225 -2225 2225 -2225 -1107 -1107 -1108 -1108 -2225 2225 -2225 2225
-2225 -2225 -2225 -2225 -1107 1107 -1108 1108 2225 2225 2225 2225 -2225
2225 -2225 2225 1107 1107 1108 1108 2225 -2225 2225 -2225 2225 2225z"/>
</g>
</svg>
